<mxfile host="app.diagrams.net" modified="2020-12-30T08:37:01.590Z" agent="5.0 (X11; Linux x86_64) AppleWebKit/537.36 (KHTML, like Gecko) Chrome/73.0.3683.86 Safari/537.36" etag="ZiqjS6J-Ou-5i_Z1V5uB" version="14.1.3" type="github">
  <diagram id="C5RBs43oDa-KdzZeNtuy" name="Page-1">
    <mxGraphModel dx="2249" dy="656" grid="1" gridSize="10" guides="1" tooltips="1" connect="1" arrows="1" fold="1" page="1" pageScale="1" pageWidth="827" pageHeight="1169" math="0" shadow="0">
      <root>
        <mxCell id="WIyWlLk6GJQsqaUBKTNV-0" />
        <mxCell id="WIyWlLk6GJQsqaUBKTNV-1" parent="WIyWlLk6GJQsqaUBKTNV-0" />
        <mxCell id="Jr7XMLLZhanz5gWbxOW6-269" value="&lt;font color=&quot;#ff3333&quot; style=&quot;font-size: 16px;&quot;&gt;msg &lt;/font&gt;:= &amp;amp;pbserver.FSGetFightIdReq{FightType: pbserver.FSFightType_PersonBoss, Line: int32(user.Id)}" style="text;html=1;align=center;verticalAlign=middle;resizable=0;points=[];autosize=1;fontSize=16;" vertex="1" parent="WIyWlLk6GJQsqaUBKTNV-1">
          <mxGeometry x="-240" y="30" width="750" height="20" as="geometry" />
        </mxCell>
        <mxCell id="Jr7XMLLZhanz5gWbxOW6-270" value="&lt;font color=&quot;#0000ff&quot;&gt;respMsg &lt;/font&gt;:= &amp;amp;pbserver.FSGetFightIdAck{}" style="text;html=1;align=center;verticalAlign=middle;resizable=0;points=[];autosize=1;fontSize=16;" vertex="1" parent="WIyWlLk6GJQsqaUBKTNV-1">
          <mxGeometry x="-240" y="70" width="310" height="20" as="geometry" />
        </mxCell>
        <mxCell id="Jr7XMLLZhanz5gWbxOW6-271" value="err := m.FsManager.RpcCal(user, pbserver.CmdFSGetFightIdReqId, &lt;font color=&quot;#ff0000&quot;&gt;msg&lt;/font&gt;, &lt;font color=&quot;#0000ff&quot;&gt;respMsg&lt;/font&gt;, pbserver.FSFightType_PersonBoss)" style="text;html=1;align=center;verticalAlign=middle;resizable=0;points=[];autosize=1;fontSize=16;" vertex="1" parent="WIyWlLk6GJQsqaUBKTNV-1">
          <mxGeometry x="-240" y="110" width="870" height="20" as="geometry" />
        </mxCell>
        <mxCell id="Jr7XMLLZhanz5gWbxOW6-272" value="func (this *FSManager) RpcCal(user *objs.User, cmdId uint16, &lt;font color=&quot;#ff3333&quot;&gt;req nw.ProtoMessage&lt;/font&gt;, &lt;font color=&quot;#0000ff&quot;&gt;resp nw.ProtoMessage&lt;/font&gt;, fightType pbserver.FSFightType)" style="text;html=1;align=center;verticalAlign=middle;resizable=0;points=[];autosize=1;fontSize=16;" vertex="1" parent="WIyWlLk6GJQsqaUBKTNV-1">
          <mxGeometry x="-240" y="150" width="1030" height="20" as="geometry" />
        </mxCell>
        <mxCell id="Jr7XMLLZhanz5gWbxOW6-273" value="err := session.Call(cmdId, &lt;font color=&quot;#ff0000&quot;&gt;req&lt;/font&gt;, &lt;font color=&quot;#0000ff&quot;&gt;resp&lt;/font&gt;)" style="text;html=1;align=center;verticalAlign=middle;resizable=0;points=[];autosize=1;fontSize=16;" vertex="1" parent="WIyWlLk6GJQsqaUBKTNV-1">
          <mxGeometry x="-240" y="190" width="270" height="20" as="geometry" />
        </mxCell>
      </root>
    </mxGraphModel>
  </diagram>
</mxfile>
